<svg width="180" height="50" viewBox="0 0 180 50" fill="none" xmlns="http://www.w3.org/2000/svg">
  <!-- Shield/Crest Background -->
  <path d="M25 5 L35 10 L35 25 C35 32 30 38 25 42 C20 38 15 32 15 25 L15 10 Z" fill="#B8956A" opacity="0.15"/>
  <path d="M25 5 L35 10 L35 25 C35 32 30 38 25 42 C20 38 15 32 15 25 L15 10 Z" stroke="#B8956A" stroke-width="1.5" fill="none"/>
  
  <!-- Book Icon -->
  <rect x="21" y="18" width="8" height="10" rx="0.5" stroke="#B8956A" stroke-width="1.2" fill="none"/>
  <line x1="25" y1="18" x2="25" y2="28" stroke="#B8956A" stroke-width="1"/>
  <line x1="21" y1="21" x2="29" y2="21" stroke="#B8956A" stroke-width="0.8" opacity="0.5"/>
  <line x1="21" y1="24" x2="29" y2="24" stroke="#B8956A" stroke-width="0.8" opacity="0.5"/>
  
  <!-- Laurel Leaves -->
  <path d="M18 15 Q16 17 18 19" stroke="#B8956A" stroke-width="1" fill="none" opacity="0.6"/>
  <path d="M32 15 Q34 17 32 19" stroke="#B8956A" stroke-width="1" fill="none" opacity="0.6"/>
  
  <!-- Text: BCC -->
  <text x="50" y="28" font-family="'Playfair Display', serif" font-size="22" font-weight="600" fill="#2C2C2C" letter-spacing="0.5">
    BCC
  </text>
  
  <!-- Subtitle -->
  <text x="50" y="38" font-family="'Inter', sans-serif" font-size="8" font-weight="400" fill="#8A8A8A" letter-spacing="2">
    EST. 1994
  </text>
</svg>
